<svg width="21" height="22" viewBox="0 0 21 22" fill="none" xmlns="http://www.w3.org/2000/svg">
<path d="M18.3609 0H2.97763C2.66789 0.00073774 2.36133 0.0582698 2.07547 0.169311C1.78961 0.280353 1.53003 0.442729 1.31157 0.647169C1.09311 0.851609 0.920037 1.09411 0.802236 1.36082C0.684436 1.62754 0.624213 1.91324 0.625008 2.20162V16.6511C0.625008 17.8695 1.68109 18.8527 2.97763 18.8527H15.995L15.3848 16.8739L16.8553 18.1462L18.2437 19.3433L20.7135 21.375V2.20162C20.7143 1.91324 20.6541 1.62754 20.5363 1.36082C20.4185 1.09411 20.2454 0.851609 20.027 0.647169C19.8085 0.442729 19.549 0.280353 19.2631 0.169311C18.9772 0.0582698 18.6707 0.00073774 18.3609 0ZM13.9288 13.9579C13.9288 13.9579 13.5155 13.4989 13.1723 13.0905C14.6755 12.6945 15.2495 11.8192 15.2495 11.8192C14.7782 12.1072 14.3311 12.312 13.9288 12.4515C12.4639 13.0223 10.8507 13.178 9.29117 12.8993C8.71493 12.7939 8.15028 12.6395 7.60434 12.438C7.31641 12.3362 7.03659 12.2155 6.76697 12.0769C6.73192 12.0532 6.69809 12.0443 6.66426 12.0229C6.64616 12.0149 6.63009 12.0034 6.61713 11.9891C6.41051 11.8834 6.29572 11.8091 6.29572 11.8091C6.29572 11.8091 6.84672 12.6641 8.30517 13.0702C7.9608 13.4753 7.53547 13.9579 7.53547 13.9579C4.99917 13.8825 4.03613 12.3334 4.03613 12.3334C4.03613 8.892 5.68913 6.10313 5.68913 6.10313C7.34213 4.94775 8.91417 4.98038 8.91417 4.98038L9.02897 5.10862C6.96272 5.6655 6.00934 6.50925 6.00934 6.50925C6.00934 6.50925 6.26309 6.381 6.68722 6.19987C7.91488 5.69812 8.89001 5.55863 9.29238 5.526C9.36126 5.51588 9.41926 5.50463 9.48813 5.50463C11.4785 5.2549 13.5024 5.60707 15.2615 6.50925C15.2615 6.50925 14.3541 5.70825 12.4026 5.1525L12.5633 4.9815C12.5633 4.9815 14.1366 4.94887 15.7884 6.10425C15.7884 6.10425 17.4414 8.89312 17.4414 12.3345C17.4414 12.3334 16.4663 13.8825 13.9288 13.9579Z" fill="#C4C4C4"/>
</svg>
