<svg width="20" height="20" viewBox="0 0 20 20" fill="none" xmlns="http://www.w3.org/2000/svg">
<path d="M20 0.0112081C19.1294 0.764094 18.1656 1.33993 17.1455 1.71654C16.5979 0.944696 15.8703 0.39763 15.0609 0.149336C14.2516 -0.0989584 13.3995 -0.0365016 12.6201 0.328259C11.8406 0.69302 11.1713 1.34249 10.7027 2.18882C10.2341 3.03515 9.98882 4.03751 10 5.06034V6.17494C8.40239 6.22573 6.81934 5.79131 5.39183 4.91037C3.96431 4.02942 2.73665 2.72931 1.81818 1.12581C1.81818 1.12581 -1.81818 11.1572 6.36364 15.6156C4.49139 17.1738 2.26105 17.955 0 17.8448C8.18182 23.4178 18.1818 17.8448 18.1818 5.0269C18.181 4.71643 18.1566 4.40673 18.1091 4.10178C19.0369 2.97993 19.6917 1.56352 20 0.0112081Z" fill="#C4C4C4"/>
</svg>
